<mxfile host="app.diagrams.net" modified="2024-07-22T11:52:49.325Z" agent="Mozilla/5.0 (X11; Linux x86_64; rv:124.0) Gecko/20100101 Firefox/124.0" version="24.7.1" etag="-q3aWs1nAwpPMmuymaLH" type="github">
  <diagram name="Page-1" id="PlLfJiB_kQ4BUX43ge7r">
    <mxGraphModel>
      <root>
        <mxCell id="0" />
        <mxCell id="1" parent="0" />
      </root>
    </mxGraphModel>
  </diagram>
</mxfile>
